<svg id="Component_2_1" data-name="Component 2 – 1" xmlns="http://www.w3.org/2000/svg" width="158" height="150" viewBox="0 0 158 150">
  <ellipse id="Ellipse_421" data-name="Ellipse 421" cx="79" cy="75" rx="79" ry="75" fill="#56c8e8"/>
  <path id="Path_119949" data-name="Path 119949" d="M76.26,84.282l-2.539-2.539a4.248,4.248,0,0,0-5.994,0l-35.671,35.67L9.77,95.126a4.249,4.249,0,0,0-5.994,0L1.237,97.664a4.252,4.252,0,0,0,0,6L26.4,128.822a.956.956,0,0,0,.11.132l2.539,2.5a4.184,4.184,0,0,0,3.006,1.193h.013a4.174,4.174,0,0,0,3-1.193l2.54-2.519a.64.64,0,0,0,.1-.108L76.26,90.269A4.233,4.233,0,0,0,76.26,84.282Z" transform="translate(40.499 -22.656)" fill="#fff"/>
</svg>
